<?xml version="1.0" standalone="no"?>
<!DOCTYPE svg PUBLIC "-//W3C//DTD SVG 20010904//EN"
 "http://www.w3.org/TR/2001/REC-SVG-20010904/DTD/svg10.dtd">
<svg version="1.0" xmlns="http://www.w3.org/2000/svg"
 width="260.000000pt" height="260.000000pt" viewBox="0 0 260.000000 260.000000"
 preserveAspectRatio="xMidYMid meet">
<metadata>
Created by potrace 1.11, written by Peter Selinger 2001-2013
</metadata>
<g transform="translate(0.000000,260.000000) scale(0.100000,-0.100000)"
fill="#000000" stroke="none">
<path d="M285 2257 c-136 -148 -240 -364 -272 -563 -10 -62 -9 -295 1 -353 70
-404 365 -741 752 -860 118 -37 180 -45 329 -45 156 1 229 14 365 64 126 46
223 102 338 198 l53 45 216 -217 216 -217 34 38 c53 59 117 152 156 223 37 68
91 212 101 271 4 19 10 52 14 74 3 22 6 105 6 185 -1 165 -24 272 -88 420
-119 276 -372 504 -658 595 -130 41 -192 50 -353 49 -271 -2 -508 -95 -718
-283 l-27 -24 -215 216 c-119 120 -217 217 -218 217 -1 0 -15 -15 -32 -33z
m1188 -527 c108 -40 216 -150 258 -260 33 -85 37 -218 9 -300 -93 -277 -398
-401 -648 -265 -272 148 -323 508 -103 725 128 127 312 165 484 100z"/>
</g>
</svg>
