<?xml version="1.0" encoding="utf-8"?>
<!-- Generator: Adobe Illustrator 16.2.0, SVG Export Plug-In . SVG Version: 6.00 Build 0)  -->
<!DOCTYPE svg PUBLIC "-//W3C//DTD SVG 1.1//EN" "http://www.w3.org/Graphics/SVG/1.1/DTD/svg11.dtd">
<svg version="1.1" id="Ebene_1" xmlns="http://www.w3.org/2000/svg" xmlns:xlink="http://www.w3.org/1999/xlink" x="0px" y="0px"
	 width="2160px" height="2160px" viewBox="0 0 2160 2160" enable-background="new 0 0 2160 2160" xml:space="preserve">
<path fill="#F2F2F2" d="M1893.22,625.414c-349.7-349.688-915.458-351.352-1267.392-5.247L266.786,261.156
	c-351.521,351.499-351.498,921.408,0,1273.107c349.709,349.957,915.479,351.655,1267.401,5.292l359.033,359.289
	C2244.751,1547.057,2244.693,976.968,1893.22,625.414z M1085.193,1453.288c-208.824,0-378.077-169.418-378.077-378.176
	c0-208.824,169.253-378.078,378.077-378.078c208.78,0,378.055,169.253,378.055,378.032
	C1463.248,1283.87,1293.974,1453.288,1085.193,1453.288z"/>
</svg>
